<?xml version="1.0" encoding="UTF-8" standalone="no"?>
<!-- Created with Inkscape (http://www.inkscape.org/) -->

<svg
   xmlns:dc="http://purl.org/dc/elements/1.1/"
   xmlns:cc="http://creativecommons.org/ns#"
   xmlns:rdf="http://www.w3.org/1999/02/22-rdf-syntax-ns#"
   xmlns:svg="http://www.w3.org/2000/svg"
   xmlns="http://www.w3.org/2000/svg"
   xmlns:sodipodi="http://sodipodi.sourceforge.net/DTD/sodipodi-0.dtd"
   xmlns:inkscape="http://www.inkscape.org/namespaces/inkscape"
   width="634.14001"
   height="561.22998"
   id="svg2"
   version="1.1"
   inkscape:version="0.48.4 r9939"
   sodipodi:docname="1.15.svg">
  <title
     id="title3002">1.15 Скользкая дорога</title>
  <defs
     id="defs4" />
  <sodipodi:namedview
     id="base"
     pagecolor="#ffffff"
     bordercolor="#666666"
     borderopacity="1.0"
     inkscape:pageopacity="0.0"
     inkscape:pageshadow="2"
     inkscape:zoom="1"
     inkscape:cx="439.34751"
     inkscape:cy="368.28202"
     inkscape:document-units="px"
     inkscape:current-layer="layer1"
     showgrid="false"
     inkscape:window-width="1920"
     inkscape:window-height="1024"
     inkscape:window-x="-4"
     inkscape:window-y="-4"
     inkscape:window-maximized="1"
     inkscape:snap-bbox="true"
     inkscape:bbox-paths="true"
     inkscape:bbox-nodes="true"
     inkscape:snap-bbox-edge-midpoints="true"
     inkscape:snap-bbox-midpoints="true"
     inkscape:object-paths="true"
     inkscape:snap-intersection-paths="true"
     inkscape:object-nodes="true"
     inkscape:snap-smooth-nodes="true" />
  <metadata
     id="metadata7">
    <rdf:RDF>
      <cc:Work
         rdf:about="">
        <dc:format>image/svg+xml</dc:format>
        <dc:type
           rdf:resource="http://purl.org/dc/dcmitype/StillImage" />
        <dc:title>1.15 Скользкая дорога</dc:title>
        <cc:license
           rdf:resource="http://creativecommons.org/licenses/by-sa/3.0/" />
        <dc:description>ГОСТ Р 52290-2004
Размеры и пропорции по типоразмеру I</dc:description>
      </cc:Work>
      <cc:License
         rdf:about="http://creativecommons.org/licenses/by-sa/3.0/">
        <cc:permits
           rdf:resource="http://creativecommons.org/ns#Reproduction" />
        <cc:permits
           rdf:resource="http://creativecommons.org/ns#Distribution" />
        <cc:requires
           rdf:resource="http://creativecommons.org/ns#Notice" />
        <cc:requires
           rdf:resource="http://creativecommons.org/ns#Attribution" />
        <cc:permits
           rdf:resource="http://creativecommons.org/ns#DerivativeWorks" />
        <cc:requires
           rdf:resource="http://creativecommons.org/ns#ShareAlike" />
      </cc:License>
    </rdf:RDF>
  </metadata>
  <g
     inkscape:label="Layer 1"
     inkscape:groupmode="layer"
     id="layer1"
     transform="translate(0,-491.13214)">
    <path
       id="path14165"
       style="opacity:1;color:#000000;fill:#ffffff;fill-opacity:1;fill-rule:nonzero;stroke:none;stroke-width:1px;marker:none;visibility:visible;display:inline;overflow:visible;enable-background:accumulate"
       d="m 339.56538,497.17249 c -21.5231,-12.42634 -49.0448,-5.052 -61.4712,16.47128 L 6.0363923,984.86207 c -12.42642,21.52303 -5.05209,49.04473 16.4710997,61.47113 6.84091,3.9496 14.60091,6.0289 22.50008,6.0289 l 544.115708,-10e-5 c 7.8992,0 15.6592,-2.0793 22.5001,-6.0289 21.5231,-12.4264 28.8976,-39.948 16.4712,-61.47112 l -272.058,-471.21821 c -3.9496,-6.84091 -9.6303,-12.52166 -16.4712,-16.47128 z"
       inkscape:connector-curvature="0"
       sodipodi:nodetypes="sccsccsccs" />
    <path
       id="path14167"
       style="opacity:1;fill:#000000;fill-opacity:1;stroke:none"
       d="m 360.22548,868.69272 -30.1681,14.06763 c -3.3387,1.55691 -5.9828,4.29491 -7.4223,7.686 -3.2169,7.57871 0.319,16.33036 7.8977,19.54733 l 78.417,32.75404 c 11.1452,4.73085 16.3226,17.60121 11.5917,28.74639 -1.9885,4.68464 -5.4852,8.39887 -9.7831,10.71481 l 81.6902,-1e-5 c -5.2245,-26.23461 -23.9985,-48.27115 -49.9842,-57.21875 l -82.6338,-28.46313 c -5.953,-2.04977 -9.1172,-8.53728 -7.0674,-14.49027 0.2377,-0.69032 0.5412,-1.35621 0.9062,-1.9885 z"
       inkscape:connector-curvature="0"
       sodipodi:nodetypes="ccsccsccccscc" />
    <path
       sodipodi:nodetypes="csccccsccscccscc"
       inkscape:connector-curvature="0"
       d="m 304.13098,923.12421 c 14.4701,8.35431 19.4279,26.85711 11.0736,41.32717 -1.322,2.28969 -2.9384,4.3962 -4.8079,6.26572 l -11.4918,11.49181 -78.7402,0 33.0471,-22.29052 c 1.7814,-1.20155 3.3269,-2.72022 4.5593,-4.48036 5.5557,-7.93442 3.6274,-18.87035 -4.307,-24.4261 l -56.4466,-40.38466 c -7.5377,-5.27796 -9.3696,-15.6671 -4.0916,-23.2048 2.2467,-3.20874 5.5523,-5.52327 9.3359,-6.53709 l 35.4912,-9.50984 -13.548,16.1459 c -0.2953,0.35195 -0.5593,0.72902 -0.7891,1.12691 -2.1794,3.7748 -0.886,8.60162 2.8887,10.781 z"
       style="opacity:1;color:#000000;fill:#000000;fill-opacity:1;stroke:none;stroke-width:2.83582066999999990;marker:none;visibility:visible;display:inline;overflow:visible;enable-background:accumulate"
       id="path14169" />
    <path
       inkscape:connector-curvature="0"
       id="path14171"
       d="m 282.78498,696.47752 c -3.7464,-0.45999 -7.3517,1.53609 -8.9728,4.94475 l -21.5089,45.20614 c -4.8219,-0.59205 -9.1804,2.8132 -9.7725,7.63511 l -4.916,40.03744 c -0.592,4.8219 2.8133,9.18042 7.6352,9.77248 l 146.2237,17.95402 c 4.8219,0.59205 9.1804,-2.81321 9.7724,-7.63511 l 4.916,-40.03744 c 0.5921,-4.8219 -2.8131,-9.18042 -7.635,-9.77248 l -9.9336,-49.0668 c -0.7484,-3.69959 -3.7637,-6.50858 -7.51,-6.96857 l -98.2985,-12.06954 z m 1.2471,10.75515 93.2393,11.44835 c 0.7494,0.092 1.3626,0.66058 1.5123,1.40049 l 8.7277,43.14835 -124.1923,-15.24888 18.9069,-39.75526 c 0.3243,-0.68173 1.0568,-1.08506 1.8061,-0.99305 z"
       style="opacity:1;color:#000000;fill:#000000;fill-opacity:1;stroke:none;stroke-width:2;marker:none;visibility:visible;display:inline;overflow:visible;enable-background:accumulate" />
    <path
       inkscape:connector-curvature="0"
       id="path14173"
       d="m 245.42568,809.83778 -2.3511,19.14833 c -0.9739,7.93151 4.6664,15.15074 12.5979,16.12461 7.9315,0.97386 15.1507,-4.66641 16.1246,-12.59792 l 2.3511,-19.14834 -28.7225,-3.52668 z"
       style="opacity:1;color:#000000;fill:#000000;fill-opacity:1;fill-rule:nonzero;stroke:none;stroke-width:3.54299997999999980;marker:none;visibility:visible;display:inline;overflow:visible;enable-background:accumulate" />
    <path
       inkscape:connector-curvature="0"
       style="opacity:1;color:#000000;fill:#000000;fill-opacity:1;fill-rule:nonzero;stroke:none;stroke-width:3.54299997999999980;marker:none;visibility:visible;display:inline;overflow:visible;enable-background:accumulate"
       d="m 361.18618,824.05135 -2.3512,19.14834 c -0.9738,7.93151 4.6664,15.15073 12.5979,16.1246 7.9316,0.97387 15.1508,-4.66641 16.1247,-12.59792 l 2.3511,-19.14834 -28.7225,-3.52668 z"
       id="path14175" />
    <path
       id="path5791"
       style="opacity:1;fill:none;fill-opacity:1;stroke:#000000;stroke-opacity:1;stroke-width:2;stroke-miterlimit:4;stroke-dasharray:none"
       d="m 1.0074138,1007.3622 c 5.7e-5,-7.72358 2.033128,-15.31118 5.894964,-21.99998 L 278.96019,514.14412 c 12.15026,-21.0448 39.06025,-28.2554 60.10512,-16.1052 6.68883,3.8618 12.2433,9.4163 16.10512,16.1052 l 272.05769,471.2181 c 3.86184,6.6888 5.89491,14.2764 5.89497,21.99998 -7e-5,24.3005 -19.69961,43.9999 -44.00009,44 l -544.115503,0 c -24.300475,-10e-5 -44.0000132,-19.6995 -44.0000832,-44 z"
       inkscape:connector-curvature="0"
       sodipodi:nodetypes="cccscccccc" />
    <path
       style="opacity:1;fill:#ff0000;fill-opacity:1;stroke:none"
       d="M 316.3125 10 C 304.49402 10.264781 293.09264 16.514178 286.75 27.5 L 14.6875 498.71875 C 5.0225195 515.45903 10.75976 536.86625 27.5 546.53125 C 32.82067 549.60315 38.85622 551.21875 45 551.21875 L 589.125 551.21875 C 595.26878 551.21875 601.30433 549.60315 606.625 546.53125 C 623.36524 536.86625 629.10248 515.45903 619.4375 498.71875 L 347.375 27.5 C 344.30311 22.1793 339.88318 17.7594 334.5625 14.6875 C 328.80805 11.365156 322.50313 9.8613054 316.3125 10 z M 316.375 70.25 C 318.29628 70.114265 320.2689 70.558188 322.0625 71.59375 C 323.58269 72.47135 324.84108 73.7283 325.71875 75.25 L 567.28125 493.625 C 570.04221 498.40555 568.40793 504.51975 563.625 507.28125 C 562.10481 508.15885 560.38027 508.625 558.625 508.625 L 75.53125 508.625 C 70.008436 508.625 65.53125 504.1479 65.53125 498.625 C 65.53125 496.86955 65.967441 495.1428 66.84375 493.625 L 308.40625 75.25 C 310.13186 72.261187 313.17286 70.476225 316.375 70.25 z "
       transform="translate(0,491.13214)"
       id="path4410" />
  </g>
</svg>
