<?xml version="1.0" encoding="UTF-8" standalone="no"?>
<!-- Created with Inkscape (http://www.inkscape.org/) -->

<svg
   xmlns:dc="http://purl.org/dc/elements/1.1/"
   xmlns:cc="http://creativecommons.org/ns#"
   xmlns:rdf="http://www.w3.org/1999/02/22-rdf-syntax-ns#"
   xmlns:svg="http://www.w3.org/2000/svg"
   xmlns="http://www.w3.org/2000/svg"
   xmlns:sodipodi="http://sodipodi.sourceforge.net/DTD/sodipodi-0.dtd"
   xmlns:inkscape="http://www.inkscape.org/namespaces/inkscape"
   width="811.34003"
   height="811.34003"
   id="svg2"
   version="1.1"
   inkscape:version="0.48.4 r9939"
   sodipodi:docname="2.7.svg">
  <title
     id="title3002">2.1 Главная дорога</title>
  <defs
     id="defs4" />
  <sodipodi:namedview
     id="base"
     pagecolor="#ffffff"
     bordercolor="#666666"
     borderopacity="1.0"
     inkscape:pageopacity="0.0"
     inkscape:pageshadow="2"
     inkscape:zoom="1"
     inkscape:cx="420.76828"
     inkscape:cy="407.99625"
     inkscape:document-units="px"
     inkscape:current-layer="layer1"
     showgrid="false"
     inkscape:window-width="1920"
     inkscape:window-height="1024"
     inkscape:window-x="-4"
     inkscape:window-y="-4"
     inkscape:window-maximized="1"
     inkscape:snap-bbox="true"
     inkscape:bbox-paths="true"
     inkscape:bbox-nodes="true"
     inkscape:snap-bbox-edge-midpoints="true"
     inkscape:snap-bbox-midpoints="true"
     inkscape:object-paths="true"
     inkscape:snap-intersection-paths="true"
     inkscape:object-nodes="true"
     inkscape:snap-smooth-nodes="true" />
  <metadata
     id="metadata7">
    <rdf:RDF>
      <cc:Work
         rdf:about="">
        <dc:format>image/svg+xml</dc:format>
        <dc:type
           rdf:resource="http://purl.org/dc/dcmitype/StillImage" />
        <dc:title>2.1 Главная дорога</dc:title>
        <cc:license
           rdf:resource="http://creativecommons.org/licenses/by-sa/3.0/" />
        <dc:description>ГОСТ Р 52290-2004
Размеры и пропорции по типоразмеру I</dc:description>
      </cc:Work>
      <cc:License
         rdf:about="http://creativecommons.org/licenses/by-sa/3.0/">
        <cc:permits
           rdf:resource="http://creativecommons.org/ns#Reproduction" />
        <cc:permits
           rdf:resource="http://creativecommons.org/ns#Distribution" />
        <cc:requires
           rdf:resource="http://creativecommons.org/ns#Notice" />
        <cc:requires
           rdf:resource="http://creativecommons.org/ns#Attribution" />
        <cc:permits
           rdf:resource="http://creativecommons.org/ns#DerivativeWorks" />
        <cc:requires
           rdf:resource="http://creativecommons.org/ns#ShareAlike" />
      </cc:License>
    </rdf:RDF>
  </metadata>
  <g
     inkscape:label="Layer 1"
     inkscape:groupmode="layer"
     id="layer1"
     transform="translate(0,-241.022)">
    <rect
       style="color:#000000;fill:#ffffff;fill-opacity:1;fill-rule:nonzero;stroke:none;stroke-width:3.54299998;marker:none;visibility:visible;display:inline;overflow:visible;enable-background:accumulate"
       id="rect5800"
       width="600"
       height="600"
       x="-470.43497"
       y="444.13242"
       rx="45"
       ry="45"
       transform="matrix(0.70710678,-0.70710678,0.70710678,0.70710678,0,0)" />
    <path
       style="color:#000000;fill:#000000;fill-opacity:1;fill-rule:nonzero;stroke:none;stroke-width:3.54299998;marker:none;visibility:visible;display:inline;overflow:visible;enable-background:accumulate"
       d="m 20.292274,621.94792 c -13.7107988,13.7108 -13.7107988,35.78667 0,49.49747 L 380.91677,1032.0698 c 13.7108,13.7108 35.7867,13.7108 49.4975,0 l 360.6244,-360.62441 c 13.7108,-13.7108 13.7108,-35.78667 0,-49.49747 L 430.41427,261.32346 c -13.7108,-13.7108 -35.7867,-13.7108 -49.4975,0 L 20.292274,621.94792 z m 7.071101,7.07107 360.624395,-360.62443 c 9.7935,-9.7935 25.562,-9.7935 35.3554,0 l 360.6244,360.62443 c 9.7935,9.79343 9.7935,25.56191 0,35.35534 l -360.6244,360.62437 c -9.7934,9.7935 -25.5619,9.7935 -35.3554,0 L 27.363375,664.37433 c -9.793401,-9.79343 -9.793401,-25.56191 0,-35.35534 z"
       id="rect5810"
       inkscape:connector-curvature="0" />
    <path
       style="color:#000000;fill:#000000;fill-opacity:1;fill-rule:nonzero;stroke:none;stroke-width:3.54299998;marker:none;visibility:visible;display:inline;overflow:visible;enable-background:accumulate"
       d="m 165.24917,614.87685 c -17.6282,17.62817 -17.6282,46.01144 0,63.63962 l 208.5965,208.59646 c 17.6282,17.6282 46.0115,17.6282 63.6396,0 l 208.5965,-208.59646 c 17.6282,-17.62818 17.6282,-46.01145 0,-63.63962 L 437.48527,406.28036 c -17.6281,-17.6282 -46.0114,-17.6282 -63.6396,0 l -208.5965,208.59649 z m 7.0711,7.07107 208.5965,-208.59646 c 13.7108,-13.7108 35.7867,-13.7108 49.4975,0 l 208.5965,208.59646 c 13.7108,13.7108 13.7108,35.78667 0,49.49747 l -208.5965,208.59644 c -13.7108,13.7108 -35.7867,13.7108 -49.4975,0 L 172.32027,671.44539 c -13.7108,-13.7108 -13.7108,-35.78667 0,-49.49747 z"
       id="rect5814"
       inkscape:connector-curvature="0" />
    <rect
       y="561.63239"
       x="-352.93503"
       height="365"
       width="365"
       id="rect5802"
       style="color:#000000;fill:#ffcc00;fill-opacity:1;fill-rule:nonzero;stroke:none;stroke-width:3.54299998;marker:none;visibility:visible;display:inline;overflow:visible;enable-background:accumulate"
       rx="35"
       ry="35"
       transform="matrix(0.70710678,-0.70710678,0.70710678,0.70710678,0,0)" />
    <rect
       ry="44"
       rx="44"
       y="445.13242"
       x="-469.43497"
       height="598"
       width="598"
       id="rect5858"
       style="color:#000000;fill:none;stroke:#000000;stroke-width:2;stroke-miterlimit:4;stroke-opacity:1;stroke-dasharray:none;marker:none;visibility:visible;display:inline;overflow:visible;enable-background:accumulate"
       transform="matrix(0.70710678,-0.70710678,0.70710678,0.70710678,0,0)" />
  </g>
</svg>
