<?xml version="1.0" encoding="UTF-8" standalone="no"?>
<!-- Created with Inkscape (http://www.inkscape.org/) -->

<svg
   xmlns:dc="http://purl.org/dc/elements/1.1/"
   xmlns:cc="http://creativecommons.org/ns#"
   xmlns:rdf="http://www.w3.org/1999/02/22-rdf-syntax-ns#"
   xmlns:svg="http://www.w3.org/2000/svg"
   xmlns="http://www.w3.org/2000/svg"
   xmlns:sodipodi="http://sodipodi.sourceforge.net/DTD/sodipodi-0.dtd"
   xmlns:inkscape="http://www.inkscape.org/namespaces/inkscape"
   viewbox="0 0 700 700"
   width="700"
   height="700"
   id="svg2"
   version="1.1"
   inkscape:version="0.48.4 r9939"
   sodipodi:docname="2.6.svg">
  <title
     id="title3002">4.5 Пешеходная дорожка</title>
  <defs
     id="defs4" />
  <sodipodi:namedview
     id="base"
     pagecolor="#ffffff"
     bordercolor="#666666"
     borderopacity="1.0"
     inkscape:pageopacity="0.0"
     inkscape:pageshadow="2"
     inkscape:zoom="1"
     inkscape:cx="279.86343"
     inkscape:cy="388.68767"
     inkscape:document-units="px"
     inkscape:current-layer="layer1"
     showgrid="false"
     inkscape:window-width="1920"
     inkscape:window-height="1024"
     inkscape:window-x="-4"
     inkscape:window-y="-4"
     inkscape:window-maximized="1" />
  <metadata
     id="metadata7">
    <rdf:RDF>
      <cc:Work
         rdf:about="">
        <dc:format>image/svg+xml</dc:format>
        <dc:type
           rdf:resource="http://purl.org/dc/dcmitype/StillImage" />
        <dc:title>4.5 Пешеходная дорожка</dc:title>
        <cc:license
           rdf:resource="http://creativecommons.org/licenses/by-sa/3.0/" />
        <dc:description>ГОСТ Р 52290-2004
Размеры и пропорции по типоразмеру II</dc:description>
      </cc:Work>
      <cc:License
         rdf:about="http://creativecommons.org/licenses/by-sa/3.0/">
        <cc:permits
           rdf:resource="http://creativecommons.org/ns#Reproduction" />
        <cc:permits
           rdf:resource="http://creativecommons.org/ns#Distribution" />
        <cc:requires
           rdf:resource="http://creativecommons.org/ns#Notice" />
        <cc:requires
           rdf:resource="http://creativecommons.org/ns#Attribution" />
        <cc:permits
           rdf:resource="http://creativecommons.org/ns#DerivativeWorks" />
        <cc:requires
           rdf:resource="http://creativecommons.org/ns#ShareAlike" />
      </cc:License>
    </rdf:RDF>
  </metadata>
  <g
     inkscape:label="Layer 1"
     inkscape:groupmode="layer"
     id="layer1"
     transform="translate(0,-352.36218)">
    <path
       transform="matrix(15.832059,0,0,11.87835,1738.7986,-4432.173)"
       d="m -65.613615,432.25998 a 22.107042,29.465372 0 1 1 -44.214085,0 22.107042,29.465372 0 1 1 44.214085,0 z"
       sodipodi:ry="29.465372"
       sodipodi:rx="22.107042"
       sodipodi:cy="432.25998"
       sodipodi:cx="-87.720657"
       id="path6124"
       style="opacity:1;color:#000000;fill:#ffffff;fill-opacity:1;fill-rule:nonzero;stroke:none;stroke-width:1px;marker:none;visibility:visible;display:inline;overflow:visible;enable-background:accumulate"
       sodipodi:type="arc" />
    <path
       style="opacity:1;color:#000000;fill:#0d69e1;fill-opacity:1;fill-rule:nonzero;stroke:none;stroke-width:1px;marker:none;visibility:visible;display:inline;overflow:visible;enable-background:accumulate"
       d="M 350 20 C 167.74603 20 20 167.74603 20 350 C 20 532.25397 167.74603 680 350 680 C 532.25397 680 680 532.25397 680 350 C 680 167.74603 532.25397 20 350 20 z M 338.71875 116.84375 C 349.22113 116.84375 390.3125 126.3136 390.3125 159.75 C 390.3125 173.34479 381.52224 195.3125 362.40625 195.3125 C 348.83359 195.3125 305.625 174.0396 305.625 147.34375 C 305.625 124.11018 326.31442 116.84375 338.71875 116.84375 z M 330.5 201.21875 C 334.39843 201.21875 338.28791 202.20195 341.78125 204.21875 L 370.875 221 C 374.36823 223.01679 376.53125 226.7788 376.53125 230.8125 L 376.53125 350.875 L 434.96875 409.34375 L 467.09375 537.84375 C 469.96702 549.33741 462.99377 561.00161 451.5 563.875 C 440.00634 566.74838 428.34203 559.74355 425.46875 548.25 L 399.96875 446.1875 L 308.15625 354.34375 C 306.03886 352.22636 304.84375 349.36941 304.84375 346.375 L 304.84375 251.625 L 269.84375 271.84375 L 269.84375 344.34375 C 269.84375 353.697 262.2595 361.28125 252.90625 361.28125 C 243.55301 361.28125 235.96875 353.697 235.96875 344.34375 L 235.96875 265.3125 C 235.96875 257.24522 240.26355 249.81495 247.25 245.78125 L 319.1875 204.21875 C 322.68073 202.20195 326.60145 201.21864 330.5 201.21875 z M 388.84375 279.65625 L 452.28125 343.125 C 455.34578 346.18987 457.25 350.41719 457.25 355.09375 C 457.25 364.44699 449.66574 372.03125 440.3125 372.03125 C 435.63593 372.03125 431.43987 370.09578 428.375 367.03125 L 388.84375 327.5625 L 388.84375 279.65625 z M 311.375 373.53125 L 342.78125 404.9375 L 256.78125 553.78125 L 256.53125 553.65625 C 252.84214 560.14424 245.87205 564.53125 237.875 564.53125 C 226.02761 564.53125 216.40625 554.90988 216.40625 543.0625 C 216.40625 537.82525 218.31968 533.03718 221.4375 529.3125 L 311.375 373.53125 z "
       transform="translate(0,352.36218)"
       id="path6156" />
    <path
       sodipodi:type="arc"
       style="opacity:1;color:#000000;fill:none;stroke:#000000;stroke-width:0.14626010000000000;stroke-miterlimit:4;stroke-opacity:1;stroke-dasharray:none;marker:none;visibility:visible;display:inline;overflow:visible;enable-background:accumulate;fill-opacity:1"
       id="path6162"
       sodipodi:cx="-87.720657"
       sodipodi:cy="432.25998"
       sodipodi:rx="22.107042"
       sodipodi:ry="29.465372"
       d="m -65.613615,432.25998 a 22.107042,29.465372 0 1 1 -44.214085,0 22.107042,29.465372 0 1 1 44.214085,0 z"
       transform="matrix(15.786825,0,0,11.844412,1734.8306,-4417.503)" />
  </g>
</svg>
